<svg width="161" height="46" viewBox="0 0 161 46" fill="none" xmlns="http://www.w3.org/2000/svg">
<path d="M36.0107 28.3037C36.0107 28.5544 36.0179 28.7871 36.0322 29.002C36.0465 29.2168 36.0752 29.3923 36.1182 29.5283C36.1611 29.6644 36.222 29.779 36.3008 29.8721C36.3867 29.9652 36.5013 30.0475 36.6445 30.1191C36.7878 30.1836 36.9632 30.2409 37.1709 30.291V31H31.5312V30.291C31.7962 30.2194 32.0039 30.1442 32.1543 30.0654C32.3118 29.9795 32.4264 29.8649 32.498 29.7217C32.5768 29.5713 32.627 29.3851 32.6484 29.1631C32.6699 28.9339 32.6807 28.6475 32.6807 28.3037V19.0332C32.6807 18.6895 32.6699 18.4066 32.6484 18.1846C32.6341 17.9626 32.5876 17.7799 32.5088 17.6367C32.4372 17.4863 32.3226 17.3682 32.165 17.2822C32.0146 17.1963 31.8034 17.1175 31.5312 17.0459V16.3369H37.1709V17.0459C36.8773 17.1247 36.6589 17.2106 36.5156 17.3037C36.3796 17.3896 36.2757 17.4971 36.2041 17.626C36.1325 17.7549 36.0824 17.9232 36.0537 18.1309C36.0251 18.3385 36.0107 18.6429 36.0107 19.0439V28.3037ZM42.2627 31V30.291C42.5635 30.2409 42.7998 30.1764 42.9717 30.0977C43.1507 30.0117 43.2832 29.8936 43.3691 29.7432C43.4551 29.5928 43.5088 29.403 43.5303 29.1738C43.5518 28.9375 43.5625 28.6475 43.5625 28.3037V17.5938H42.6924C42.2627 17.5938 41.9333 17.6439 41.7041 17.7441C41.4749 17.8444 41.2744 18.002 41.1025 18.2168C40.9378 18.4316 40.7946 18.7217 40.6729 19.0869C40.5511 19.445 40.4508 19.7852 40.3721 20.1074H38.9004V16.3369H51.5439V20.1074H50.0723C49.9362 19.6204 49.8288 19.2624 49.75 19.0332C49.6712 18.804 49.5817 18.6107 49.4814 18.4531C49.3883 18.2884 49.2881 18.1523 49.1807 18.0449C49.0732 17.9375 48.9587 17.8516 48.8369 17.7871C48.7152 17.7227 48.5612 17.6761 48.375 17.6475C48.196 17.6117 47.9596 17.5938 47.666 17.5938H46.8926V28.3037C46.8926 28.6833 46.9033 28.9733 46.9248 29.1738C46.9463 29.3672 46.9857 29.5247 47.043 29.6465C47.1003 29.7682 47.1683 29.8685 47.2471 29.9473C47.333 30.0189 47.4476 30.0869 47.5908 30.1514C47.7412 30.2087 47.9417 30.2552 48.1924 30.291V31H42.2627ZM59.4932 27.3799C59.6722 28.2321 59.9694 28.8695 60.3848 29.292C60.8073 29.7074 61.4232 29.915 62.2324 29.915C62.6549 29.915 63.0345 29.8434 63.3711 29.7002C63.7077 29.557 63.9762 29.3278 64.1768 29.0127C64.3844 28.6904 64.4883 28.2894 64.4883 27.8096C64.4883 27.3656 64.4059 26.9824 64.2412 26.6602C64.0765 26.3307 63.8115 26.0192 63.4463 25.7256C63.0811 25.432 62.5726 25.1204 61.9209 24.791C61.3623 24.5117 60.8574 24.2217 60.4062 23.9209C59.9551 23.6201 59.5684 23.2907 59.2461 22.9326C58.931 22.5674 58.6839 22.1699 58.5049 21.7402C58.333 21.3105 58.2471 20.8271 58.2471 20.29C58.2471 19.4092 58.4655 18.6608 58.9023 18.0449C59.3392 17.429 59.9694 16.9635 60.793 16.6484C61.6237 16.3262 62.5833 16.165 63.6719 16.165C64.3092 16.165 64.918 16.2008 65.498 16.2725C66.0781 16.3369 66.7406 16.4551 67.4854 16.627V19.7422H66.0137C65.8776 19.1764 65.7021 18.7288 65.4873 18.3994C65.2796 18.0628 65.0182 17.8158 64.7031 17.6582C64.388 17.5007 63.9906 17.4219 63.5107 17.4219C63.1025 17.4219 62.7373 17.4935 62.415 17.6367C62.0928 17.7799 61.8385 17.9948 61.6523 18.2812C61.4661 18.5605 61.373 18.9007 61.373 19.3018C61.373 19.7171 61.4518 20.0788 61.6094 20.3867C61.7741 20.6875 62.0462 20.9847 62.4258 21.2783C62.8053 21.5648 63.3568 21.8942 64.0801 22.2666C64.9609 22.7249 65.652 23.1761 66.1533 23.6201C66.6618 24.057 67.0342 24.5368 67.2705 25.0596C67.514 25.5752 67.6357 26.1768 67.6357 26.8643C67.6357 27.7451 67.4316 28.5114 67.0234 29.1631C66.6152 29.8076 66.0208 30.3053 65.2402 30.6562C64.4596 31 63.5573 31.1719 62.5332 31.1719C61.8027 31.1719 61.04 31.1289 60.2451 31.043C59.4574 30.9642 58.7161 30.846 58.0215 30.6885V27.3799H59.4932ZM74.7256 31.1719C73.6729 31.1719 72.7633 30.9893 71.9971 30.624C71.238 30.2516 70.6436 29.6608 70.2139 28.8516C69.7842 28.0352 69.5693 27.0003 69.5693 25.7471C69.5693 24.7874 69.7018 23.9567 69.9668 23.2549C70.2318 22.5531 70.6006 21.973 71.0732 21.5146C71.5459 21.0563 72.1081 20.7197 72.7598 20.5049C73.4186 20.2829 74.1312 20.1719 74.8975 20.1719C76.6305 20.1719 77.9375 20.6302 78.8184 21.5469C79.6992 22.4564 80.1396 23.792 80.1396 25.5537C80.1396 26.7998 79.9212 27.8454 79.4844 28.6904C79.0475 29.5283 78.4245 30.1514 77.6152 30.5596C76.806 30.9678 75.8428 31.1719 74.7256 31.1719ZM72.835 25.5107C72.835 27.029 73.0033 28.1676 73.3398 28.9268C73.6836 29.6787 74.1992 30.0547 74.8867 30.0547C75.2663 30.0547 75.5814 29.958 75.832 29.7646C76.0898 29.5713 76.2939 29.292 76.4443 28.9268C76.6019 28.5615 76.7129 28.1247 76.7773 27.6162C76.8418 27.1006 76.874 26.5241 76.874 25.8867C76.874 24.347 76.7021 23.1976 76.3584 22.4385C76.0218 21.6722 75.5205 21.2891 74.8545 21.2891C74.3675 21.2891 73.9772 21.443 73.6836 21.751C73.39 22.0589 73.1751 22.5208 73.0391 23.1367C72.903 23.7526 72.835 24.5439 72.835 25.5107ZM90.2266 28.25L91.0537 29.249C90.3519 29.9365 89.6715 30.4307 89.0127 30.7314C88.361 31.0251 87.6484 31.1719 86.875 31.1719C85.321 31.1719 84.1357 30.7171 83.3193 29.8076C82.5029 28.891 82.0947 27.5625 82.0947 25.8223C82.0947 24.6478 82.3167 23.6344 82.7607 22.7822C83.2119 21.9229 83.8564 21.2747 84.6943 20.8379C85.5322 20.3939 86.4919 20.1719 87.5732 20.1719C88.1533 20.1719 88.7298 20.2148 89.3027 20.3008C89.8828 20.3796 90.4092 20.4906 90.8818 20.6338V23.2227H88.7549C88.6475 22.5495 88.4863 22.0589 88.2715 21.751C88.0566 21.443 87.7487 21.2891 87.3477 21.2891C87.0827 21.2891 86.8285 21.3571 86.585 21.4932C86.3486 21.6221 86.1374 21.8512 85.9512 22.1807C85.7721 22.5029 85.6289 22.9398 85.5215 23.4912C85.4141 24.0355 85.3604 24.7266 85.3604 25.5645C85.3604 26.4023 85.4391 27.1113 85.5967 27.6914C85.7542 28.2643 86.0085 28.7083 86.3594 29.0234C86.7103 29.3314 87.1722 29.4854 87.7451 29.4854C88.1605 29.4854 88.5508 29.3958 88.916 29.2168C89.2884 29.0378 89.7253 28.7155 90.2266 28.25ZM96.4248 16.0576V18.6895H93.4814V16.0576H96.4248ZM92.3428 30.291C92.6937 30.1979 92.9336 30.0762 93.0625 29.9258C93.1986 29.7754 93.2881 29.5713 93.3311 29.3135C93.3812 29.0557 93.4062 28.5866 93.4062 27.9062V22.9111C93.4062 22.5602 93.3883 22.2773 93.3525 22.0625C93.3239 21.8477 93.263 21.6758 93.1699 21.5469C93.084 21.418 92.9622 21.3213 92.8047 21.2568C92.6543 21.1852 92.4574 21.1243 92.2139 21.0742V20.3438L95.168 20.2578H96.5107V27.8955C96.5107 28.2965 96.5143 28.6081 96.5215 28.8301C96.5358 29.0449 96.5537 29.2132 96.5752 29.335C96.5967 29.4495 96.6253 29.5534 96.6611 29.6465C96.7041 29.7396 96.7578 29.8255 96.8223 29.9043C96.8867 29.9831 96.9798 30.0547 97.1016 30.1191C97.2233 30.1836 97.3844 30.2409 97.585 30.291V31H92.3428V30.291ZM108.993 29.0449C108.263 29.8184 107.539 30.3662 106.823 30.6885C106.107 31.0107 105.284 31.1719 104.353 31.1719C102.684 31.1719 101.427 30.7171 100.582 29.8076C99.7441 28.891 99.3252 27.5339 99.3252 25.7363C99.3252 24.5762 99.54 23.5771 99.9697 22.7393C100.407 21.8942 101.022 21.2568 101.817 20.8271C102.612 20.3903 103.536 20.1719 104.589 20.1719C105.241 20.1719 105.81 20.2471 106.297 20.3975C106.791 20.5479 107.214 20.7591 107.564 21.0312C107.915 21.2962 108.205 21.6185 108.435 21.998C108.707 22.4492 108.911 22.9648 109.047 23.5449C109.19 24.1393 109.265 24.859 109.272 25.7041H102.462C102.469 27.0003 102.698 27.9564 103.149 28.5723C103.608 29.181 104.302 29.4854 105.233 29.4854C105.778 29.4854 106.268 29.3851 106.705 29.1846C107.142 28.9769 107.615 28.6152 108.123 28.0996L108.993 29.0449ZM106.093 24.5439C106.064 23.4482 105.921 22.6318 105.663 22.0947C105.405 21.5576 104.99 21.2891 104.417 21.2891C103.866 21.2891 103.425 21.5684 103.096 22.127C102.773 22.6855 102.58 23.4912 102.516 24.5439H106.093ZM118.307 29.7109C117.676 30.248 117.104 30.6276 116.588 30.8496C116.072 31.0645 115.528 31.1719 114.955 31.1719C113.888 31.1719 113.09 30.8854 112.56 30.3125C112.037 29.7324 111.775 28.8587 111.775 27.6914V21.6865H110.433V20.9453C110.869 20.8737 111.192 20.7663 111.399 20.623C111.607 20.4798 111.768 20.29 111.883 20.0537C111.997 19.8102 112.087 19.4951 112.151 19.1084C112.223 18.7217 112.277 18.2383 112.312 17.6582H114.88V20.3438H117.941V21.6865H114.88V26.5312C114.88 27.3405 114.916 27.9385 114.987 28.3252C115.066 28.7119 115.195 28.9984 115.374 29.1846C115.553 29.3636 115.775 29.4531 116.04 29.4531C116.241 29.4531 116.42 29.4352 116.577 29.3994C116.735 29.3636 116.899 29.2992 117.071 29.2061C117.25 29.113 117.437 28.9805 117.63 28.8086L118.307 29.7109ZM124.408 31.4834C123.943 32.5218 123.502 33.3346 123.087 33.9219C122.679 34.5163 122.235 34.9603 121.755 35.2539C121.282 35.5475 120.691 35.6943 119.982 35.6943C119.445 35.6943 118.944 35.6263 118.479 35.4902V33.0303H119.682C119.775 33.3669 119.889 33.596 120.025 33.7178C120.169 33.8467 120.366 33.9111 120.616 33.9111C120.888 33.9111 121.132 33.8359 121.347 33.6855C121.569 33.5352 121.816 33.2523 122.088 32.8369C122.367 32.4287 122.707 31.8164 123.108 31H122.496L119.692 22.9326C119.492 22.3669 119.331 21.9801 119.209 21.7725C119.094 21.5576 118.962 21.3965 118.812 21.2891C118.668 21.1745 118.489 21.0957 118.274 21.0527V20.3438H123.635V21.0527C123.298 21.1172 123.051 21.2139 122.894 21.3428C122.736 21.4717 122.657 21.665 122.657 21.9229C122.657 22.2666 122.75 22.7142 122.937 23.2656L124.483 27.96L126.191 23.8457C126.335 23.502 126.442 23.2012 126.514 22.9434C126.585 22.6784 126.621 22.4206 126.621 22.1699C126.621 21.8691 126.535 21.6221 126.363 21.4287C126.191 21.2282 125.948 21.1029 125.633 21.0527V20.3438H129.812V21.0635C129.604 21.1279 129.436 21.2067 129.307 21.2998C129.185 21.3929 129.067 21.5146 128.952 21.665C128.845 21.8154 128.712 22.041 128.555 22.3418C128.397 22.6354 128.182 23.083 127.91 23.6846L124.408 31.4834Z" fill="#C61212"/>
</svg>
