<svg width="99" height="20" viewBox="0 0 99 20" fill="none" xmlns="http://www.w3.org/2000/svg">
<path d="M4.47949 12.2461C4.47949 12.4967 4.48665 12.7295 4.50098 12.9443C4.5153 13.1592 4.54395 13.3346 4.58691 13.4707C4.62988 13.6068 4.69076 13.7214 4.76953 13.8145C4.85547 13.9076 4.97005 13.9899 5.11328 14.0615C5.25651 14.126 5.43197 14.1833 5.63965 14.2334V14.9424H0V14.2334C0.264974 14.1618 0.472656 14.0866 0.623047 14.0078C0.780599 13.9219 0.895182 13.8073 0.966797 13.6641C1.04557 13.5137 1.0957 13.3275 1.11719 13.1055C1.13867 12.8763 1.14941 12.5898 1.14941 12.2461V2.97559C1.14941 2.63184 1.13867 2.34896 1.11719 2.12695C1.10286 1.90495 1.05632 1.72233 0.977539 1.5791C0.905924 1.42871 0.791341 1.31055 0.633789 1.22461C0.483398 1.13867 0.272135 1.0599 0 0.988281V0.279297H5.63965V0.988281C5.34603 1.06706 5.1276 1.15299 4.98438 1.24609C4.84831 1.33203 4.74447 1.43945 4.67285 1.56836C4.60124 1.69727 4.55111 1.86556 4.52246 2.07324C4.49382 2.28092 4.47949 2.58529 4.47949 2.98633V12.2461ZM10.7314 14.9424V14.2334C11.0322 14.1833 11.2686 14.1188 11.4404 14.04C11.6195 13.9541 11.752 13.8359 11.8379 13.6855C11.9238 13.5352 11.9775 13.3454 11.999 13.1162C12.0205 12.8799 12.0312 12.5898 12.0312 12.2461V1.53613H11.1611C10.7314 1.53613 10.402 1.58626 10.1729 1.68652C9.94368 1.78678 9.74316 1.94434 9.57129 2.15918C9.40658 2.37402 9.26335 2.66406 9.1416 3.0293C9.01986 3.38737 8.9196 3.72754 8.84082 4.0498H7.36914V0.279297H20.0127V4.0498H18.541C18.4049 3.56283 18.2975 3.20475 18.2188 2.97559C18.14 2.74642 18.0505 2.55306 17.9502 2.39551C17.8571 2.23079 17.7568 2.09473 17.6494 1.9873C17.542 1.87988 17.4274 1.79395 17.3057 1.72949C17.1839 1.66504 17.0299 1.61849 16.8438 1.58984C16.6647 1.55404 16.4284 1.53613 16.1348 1.53613H15.3613V12.2461C15.3613 12.6257 15.3721 12.9157 15.3936 13.1162C15.415 13.3096 15.4544 13.4671 15.5117 13.5889C15.569 13.7106 15.637 13.8109 15.7158 13.8896C15.8018 13.9613 15.9163 14.0293 16.0596 14.0938C16.21 14.151 16.4105 14.1976 16.6611 14.2334V14.9424H10.7314ZM27.9619 11.3223C28.141 12.1745 28.4382 12.8118 28.8535 13.2344C29.276 13.6497 29.8919 13.8574 30.7012 13.8574C31.1237 13.8574 31.5033 13.7858 31.8398 13.6426C32.1764 13.4993 32.445 13.2702 32.6455 12.9551C32.8532 12.6328 32.957 12.2318 32.957 11.752C32.957 11.3079 32.8747 10.9248 32.71 10.6025C32.5452 10.2731 32.2803 9.96159 31.915 9.66797C31.5498 9.37435 31.0413 9.06283 30.3896 8.7334C29.8311 8.4541 29.3262 8.16406 28.875 7.86328C28.4238 7.5625 28.0371 7.23307 27.7148 6.875C27.3997 6.50977 27.1527 6.1123 26.9736 5.68262C26.8018 5.25293 26.7158 4.76953 26.7158 4.23242C26.7158 3.35156 26.9342 2.60319 27.3711 1.9873C27.8079 1.37142 28.4382 0.905924 29.2617 0.59082C30.0924 0.268555 31.0521 0.107422 32.1406 0.107422C32.778 0.107422 33.3867 0.143229 33.9668 0.214844C34.5469 0.279297 35.2093 0.397461 35.9541 0.569336V3.68457H34.4824C34.3464 3.11882 34.1709 2.67122 33.9561 2.3418C33.7484 2.00521 33.487 1.75814 33.1719 1.60059C32.8568 1.44303 32.4593 1.36426 31.9795 1.36426C31.5713 1.36426 31.2061 1.43587 30.8838 1.5791C30.5615 1.72233 30.3073 1.93717 30.1211 2.22363C29.9349 2.50293 29.8418 2.8431 29.8418 3.24414C29.8418 3.65951 29.9206 4.02116 30.0781 4.3291C30.2428 4.62988 30.515 4.92708 30.8945 5.2207C31.2741 5.50716 31.8255 5.83659 32.5488 6.20898C33.4297 6.66732 34.1208 7.11849 34.6221 7.5625C35.1305 7.99935 35.5029 8.47917 35.7393 9.00195C35.9827 9.51758 36.1045 10.1191 36.1045 10.8066C36.1045 11.6875 35.9004 12.4538 35.4922 13.1055C35.084 13.75 34.4896 14.2477 33.709 14.5986C32.9284 14.9424 32.026 15.1143 31.002 15.1143C30.2715 15.1143 29.5088 15.0713 28.7139 14.9854C27.9261 14.9066 27.1849 14.7884 26.4902 14.6309V11.3223H27.9619ZM43.1943 15.1143C42.1416 15.1143 41.2321 14.9316 40.4658 14.5664C39.7067 14.194 39.1123 13.6032 38.6826 12.7939C38.2529 11.9775 38.0381 10.9427 38.0381 9.68945C38.0381 8.72982 38.1706 7.89909 38.4355 7.19727C38.7005 6.49544 39.0693 5.91536 39.542 5.45703C40.0146 4.9987 40.5768 4.66211 41.2285 4.44727C41.8874 4.22526 42.5999 4.11426 43.3662 4.11426C45.0993 4.11426 46.4062 4.57259 47.2871 5.48926C48.168 6.39876 48.6084 7.73438 48.6084 9.49609C48.6084 10.7422 48.39 11.7878 47.9531 12.6328C47.5163 13.4707 46.8932 14.0938 46.084 14.502C45.2747 14.9102 44.3115 15.1143 43.1943 15.1143ZM41.3037 9.45312C41.3037 10.9714 41.472 12.11 41.8086 12.8691C42.1523 13.6211 42.668 13.9971 43.3555 13.9971C43.735 13.9971 44.0501 13.9004 44.3008 13.707C44.5586 13.5137 44.7627 13.2344 44.9131 12.8691C45.0706 12.5039 45.1816 12.0671 45.2461 11.5586C45.3105 11.043 45.3428 10.4665 45.3428 9.8291C45.3428 8.28939 45.1709 7.13997 44.8271 6.38086C44.4906 5.61458 43.9893 5.23145 43.3232 5.23145C42.8363 5.23145 42.446 5.38542 42.1523 5.69336C41.8587 6.0013 41.6439 6.46322 41.5078 7.0791C41.3717 7.69499 41.3037 8.48633 41.3037 9.45312ZM58.6953 12.1924L59.5225 13.1914C58.8206 13.8789 58.1403 14.373 57.4814 14.6738C56.8298 14.9674 56.1172 15.1143 55.3438 15.1143C53.7897 15.1143 52.6045 14.6595 51.7881 13.75C50.9717 12.8333 50.5635 11.5049 50.5635 9.76465C50.5635 8.59017 50.7855 7.57682 51.2295 6.72461C51.6807 5.86523 52.3252 5.21712 53.1631 4.78027C54.001 4.33626 54.9606 4.11426 56.042 4.11426C56.6221 4.11426 57.1986 4.15723 57.7715 4.24316C58.3516 4.32194 58.8779 4.43294 59.3506 4.57617V7.16504H57.2236C57.1162 6.49186 56.9551 6.0013 56.7402 5.69336C56.5254 5.38542 56.2174 5.23145 55.8164 5.23145C55.5514 5.23145 55.2972 5.29948 55.0537 5.43555C54.8174 5.56445 54.6061 5.79362 54.4199 6.12305C54.2409 6.44531 54.0977 6.88216 53.9902 7.43359C53.8828 7.97786 53.8291 8.66895 53.8291 9.50684C53.8291 10.3447 53.9079 11.0537 54.0654 11.6338C54.223 12.2067 54.4772 12.6507 54.8281 12.9658C55.179 13.2738 55.641 13.4277 56.2139 13.4277C56.6292 13.4277 57.0195 13.3382 57.3848 13.1592C57.7572 12.9801 58.194 12.6579 58.6953 12.1924ZM64.8936 0V2.63184H61.9502V0H64.8936ZM60.8115 14.2334C61.1624 14.1403 61.4023 14.0186 61.5312 13.8682C61.6673 13.7178 61.7568 13.5137 61.7998 13.2559C61.8499 12.998 61.875 12.529 61.875 11.8486V6.85352C61.875 6.5026 61.8571 6.21973 61.8213 6.00488C61.7926 5.79004 61.7318 5.61816 61.6387 5.48926C61.5527 5.36035 61.431 5.26367 61.2734 5.19922C61.123 5.1276 60.9261 5.06673 60.6826 5.0166V4.28613L63.6367 4.2002H64.9795V11.8379C64.9795 12.2389 64.9831 12.5505 64.9902 12.7725C65.0046 12.9873 65.0225 13.1556 65.0439 13.2773C65.0654 13.3919 65.0941 13.4958 65.1299 13.5889C65.1729 13.682 65.2266 13.7679 65.291 13.8467C65.3555 13.9255 65.4486 13.9971 65.5703 14.0615C65.6921 14.126 65.8532 14.1833 66.0537 14.2334V14.9424H60.8115V14.2334ZM77.4619 12.9873C76.7314 13.7607 76.0081 14.3086 75.292 14.6309C74.5758 14.9531 73.7523 15.1143 72.8213 15.1143C71.1527 15.1143 69.8958 14.6595 69.0508 13.75C68.2129 12.8333 67.7939 11.4762 67.7939 9.67871C67.7939 8.51855 68.0088 7.51953 68.4385 6.68164C68.8753 5.83659 69.4912 5.19922 70.2861 4.76953C71.0811 4.33268 72.0049 4.11426 73.0576 4.11426C73.7093 4.11426 74.2786 4.18945 74.7656 4.33984C75.2598 4.49023 75.6823 4.7015 76.0332 4.97363C76.3841 5.23861 76.6742 5.56087 76.9033 5.94043C77.1755 6.3916 77.3796 6.90723 77.5156 7.4873C77.6589 8.08171 77.734 8.80143 77.7412 9.64648H70.9307C70.9378 10.9427 71.167 11.8988 71.6182 12.5146C72.0765 13.1234 72.7712 13.4277 73.7021 13.4277C74.2464 13.4277 74.737 13.3275 75.1738 13.127C75.6107 12.9193 76.0833 12.5576 76.5918 12.042L77.4619 12.9873ZM74.5615 8.48633C74.5329 7.39062 74.3896 6.57422 74.1318 6.03711C73.874 5.5 73.4587 5.23145 72.8857 5.23145C72.3343 5.23145 71.8939 5.51074 71.5645 6.06934C71.2422 6.62793 71.0488 7.43359 70.9844 8.48633H74.5615ZM86.7754 13.6533C86.1452 14.1904 85.5723 14.57 85.0566 14.792C84.541 15.0068 83.9967 15.1143 83.4238 15.1143C82.3568 15.1143 81.5583 14.8278 81.0283 14.2549C80.5055 13.6748 80.2441 12.8011 80.2441 11.6338V5.62891H78.9014V4.8877C79.3382 4.81608 79.6605 4.70866 79.8682 4.56543C80.0758 4.4222 80.237 4.23242 80.3516 3.99609C80.4661 3.7526 80.5557 3.4375 80.6201 3.05078C80.6917 2.66406 80.7454 2.18066 80.7812 1.60059H83.3486V4.28613H86.4102V5.62891H83.3486V10.4736C83.3486 11.2829 83.3844 11.8809 83.4561 12.2676C83.5348 12.6543 83.6637 12.9408 83.8428 13.127C84.0218 13.306 84.2438 13.3955 84.5088 13.3955C84.7093 13.3955 84.8883 13.3776 85.0459 13.3418C85.2035 13.306 85.3682 13.2415 85.54 13.1484C85.7191 13.0553 85.9053 12.9229 86.0986 12.751L86.7754 13.6533ZM92.877 15.4258C92.4115 16.4642 91.971 17.277 91.5557 17.8643C91.1475 18.4587 90.7035 18.9027 90.2236 19.1963C89.751 19.4899 89.1602 19.6367 88.4512 19.6367C87.9141 19.6367 87.4128 19.5687 86.9473 19.4326V16.9727H88.1504C88.2435 17.3092 88.3581 17.5384 88.4941 17.6602C88.6374 17.7891 88.8343 17.8535 89.085 17.8535C89.3571 17.8535 89.6006 17.7783 89.8154 17.6279C90.0374 17.4775 90.2845 17.1947 90.5566 16.7793C90.8359 16.3711 91.1761 15.7588 91.5771 14.9424H90.9648L88.1611 6.875C87.9606 6.30924 87.7995 5.92253 87.6777 5.71484C87.5632 5.5 87.4307 5.33887 87.2803 5.23145C87.137 5.11686 86.958 5.03809 86.7432 4.99512V4.28613H92.1035V4.99512C91.7669 5.05957 91.5199 5.15625 91.3623 5.28516C91.2048 5.41406 91.126 5.60742 91.126 5.86523C91.126 6.20898 91.2191 6.65658 91.4053 7.20801L92.9521 11.9023L94.6602 7.78809C94.8034 7.44434 94.9108 7.14355 94.9824 6.88574C95.054 6.62077 95.0898 6.36296 95.0898 6.1123C95.0898 5.81152 95.0039 5.56445 94.832 5.37109C94.6602 5.17057 94.4167 5.04525 94.1016 4.99512V4.28613H98.2803V5.00586C98.0726 5.07031 97.9043 5.14909 97.7754 5.24219C97.6536 5.33529 97.5355 5.45703 97.4209 5.60742C97.3135 5.75781 97.181 5.9834 97.0234 6.28418C96.8659 6.5778 96.651 7.02539 96.3789 7.62695L92.877 15.4258Z" fill="white"/>
</svg>
