<svg width="713" height="124" viewBox="0 0 713 124" fill="none" xmlns="http://www.w3.org/2000/svg">
<path d="M10.4148 11.0909V46H3.03409V11.0909H10.4148ZM15.1577 17.1761V11.0909H43.8281V17.1761H33.1406V46H25.8452V17.1761H15.1577ZM77.7486 11.0909V46H71.3736L56.1861 24.0284H55.9304V46H48.5497V11.0909H55.027L70.0952 33.0455H70.402V11.0909H77.7486ZM102.784 21.1307C102.648 19.7557 102.063 18.6875 101.028 17.9261C99.9943 17.1648 98.5909 16.7841 96.8182 16.7841C95.6136 16.7841 94.5966 16.9545 93.767 17.2955C92.9375 17.625 92.3011 18.0852 91.858 18.6761C91.4261 19.267 91.2102 19.9375 91.2102 20.6875C91.1875 21.3125 91.3182 21.858 91.6023 22.3239C91.8977 22.7898 92.3011 23.1932 92.8125 23.5341C93.3239 23.8636 93.9148 24.1534 94.5852 24.4034C95.2557 24.642 95.9716 24.8466 96.733 25.017L99.8693 25.767C101.392 26.108 102.79 26.5625 104.062 27.1307C105.335 27.6989 106.438 28.3977 107.369 29.2273C108.301 30.0568 109.023 31.0341 109.534 32.1591C110.057 33.2841 110.324 34.5739 110.335 36.0284C110.324 38.1648 109.778 40.017 108.699 41.5852C107.631 43.142 106.085 44.3523 104.062 45.2159C102.051 46.0682 99.625 46.4943 96.7841 46.4943C93.9659 46.4943 91.5114 46.0625 89.4205 45.1989C87.3409 44.3352 85.7159 43.0568 84.5455 41.3636C83.3864 39.6591 82.7784 37.5511 82.7216 35.0398H89.8636C89.9432 36.2102 90.2784 37.1875 90.8693 37.9716C91.4716 38.7443 92.2727 39.3295 93.2727 39.7273C94.2841 40.1136 95.4261 40.3068 96.6989 40.3068C97.9489 40.3068 99.0341 40.125 99.9545 39.7614C100.886 39.3977 101.608 38.892 102.119 38.2443C102.631 37.5966 102.886 36.8523 102.886 36.0114C102.886 35.2273 102.653 34.5682 102.188 34.0341C101.733 33.5 101.063 33.0455 100.176 32.6705C99.3011 32.2955 98.2273 31.9545 96.9545 31.6477L93.1534 30.6932C90.2102 29.9773 87.8864 28.858 86.1818 27.3352C84.4773 25.8125 83.6307 23.7614 83.642 21.1818C83.6307 19.0682 84.1932 17.2216 85.3295 15.642C86.4773 14.0625 88.0511 12.8295 90.0511 11.9432C92.0511 11.0568 94.3239 10.6136 96.8693 10.6136C99.4602 10.6136 101.722 11.0568 103.653 11.9432C105.597 12.8295 107.108 14.0625 108.188 15.642C109.267 17.2216 109.824 19.0511 109.858 21.1307H102.784ZM120.52 46H112.611L124.662 11.0909H134.173L146.207 46H138.298L129.554 19.0682H129.281L120.52 46ZM120.026 32.2784H138.707V38.0398H120.026V32.2784Z" fill="#FFF8F0"/>
<path d="M199 15C201.209 15 203 16.7909 203 19V23C203 25.2091 201.209 27 199 27H161C158.791 27 157 25.2091 157 23V19C157 16.7909 158.791 15 161 15H199ZM189.5 19C188.119 19 187 20.1193 187 21.5C187 22.8807 188.119 24 189.5 24C190.881 24 192 22.8807 192 21.5C192 20.1193 190.881 19 189.5 19ZM196.5 19C195.119 19 194 20.1193 194 21.5C194 22.8807 195.119 24 196.5 24C197.881 24 199 22.8807 199 21.5C199 20.1193 197.881 19 196.5 19Z" fill="#FFF8F0"/>
<path d="M199 28C201.209 28 203 29.7909 203 32V36C203 38.2091 201.209 40 199 40H161C158.791 40 157 38.2091 157 36V32C157 29.7909 158.791 28 161 28H199ZM189.5 32C188.119 32 187 33.1193 187 34.5C187 35.8807 188.119 37 189.5 37C190.881 37 192 35.8807 192 34.5C192 33.1193 190.881 32 189.5 32ZM196.5 32C195.119 32 194 33.1193 194 34.5C194 35.8807 195.119 37 196.5 37C197.881 37 199 35.8807 199 34.5C199 33.1193 197.881 32 196.5 32Z" fill="#FFF8F0"/>
<path d="M245.835 23.3125H238.369C238.233 22.3466 237.955 21.4886 237.534 20.7386C237.114 19.9773 236.574 19.3295 235.915 18.7955C235.256 18.2614 234.494 17.8523 233.631 17.5682C232.778 17.2841 231.852 17.142 230.852 17.142C229.045 17.142 227.472 17.5909 226.131 18.4886C224.79 19.375 223.75 20.6705 223.011 22.375C222.273 24.0682 221.903 26.125 221.903 28.5455C221.903 31.0341 222.273 33.125 223.011 34.8182C223.761 36.5114 224.807 37.7898 226.148 38.6534C227.489 39.517 229.04 39.9489 230.801 39.9489C231.79 39.9489 232.705 39.8182 233.545 39.5568C234.398 39.2955 235.153 38.9148 235.812 38.4148C236.472 37.9034 237.017 37.2841 237.449 36.5568C237.892 35.8295 238.199 35 238.369 34.0682L245.835 34.1023C245.642 35.7045 245.159 37.25 244.386 38.7386C243.625 40.2159 242.597 41.5398 241.301 42.7102C240.017 43.8693 238.483 44.7898 236.699 45.4716C234.926 46.142 232.92 46.4773 230.682 46.4773C227.568 46.4773 224.784 45.7727 222.33 44.3636C219.886 42.9545 217.955 40.9148 216.534 38.2443C215.125 35.5739 214.42 32.3409 214.42 28.5455C214.42 24.7386 215.136 21.5 216.568 18.8295C218 16.1591 219.943 14.125 222.398 12.7273C224.852 11.3182 227.614 10.6136 230.682 10.6136C232.705 10.6136 234.58 10.8977 236.307 11.4659C238.045 12.0341 239.585 12.8636 240.926 13.9545C242.267 15.0341 243.358 16.358 244.199 17.9261C245.051 19.4943 245.597 21.2898 245.835 23.3125ZM255.803 55.8182C254.882 55.8182 254.018 55.7443 253.212 55.5966C252.416 55.4602 251.757 55.2841 251.234 55.0682L252.871 49.6477C253.723 49.9091 254.49 50.0511 255.172 50.0739C255.865 50.0966 256.462 49.9375 256.962 49.5966C257.473 49.2557 257.888 48.6761 258.206 47.858L258.632 46.75L249.24 19.8182H256.876L262.297 39.0455H262.57L268.041 19.8182H275.729L265.553 48.8295C265.064 50.2386 264.399 51.4659 263.558 52.5114C262.729 53.5682 261.678 54.3807 260.405 54.9489C259.132 55.5284 257.598 55.8182 255.803 55.8182ZM279.581 46V11.0909H286.842V24.2159H287.064C287.382 23.5114 287.842 22.7955 288.445 22.0682C289.058 21.3295 289.854 20.7159 290.831 20.2273C291.82 19.7273 293.047 19.4773 294.513 19.4773C296.422 19.4773 298.183 19.9773 299.797 20.9773C301.411 21.9659 302.7 23.4602 303.666 25.4602C304.632 27.4489 305.115 29.9432 305.115 32.9432C305.115 35.8636 304.643 38.3295 303.7 40.3409C302.768 42.3409 301.496 43.858 299.882 44.892C298.28 45.9148 296.484 46.4261 294.496 46.4261C293.087 46.4261 291.888 46.1932 290.899 45.7273C289.922 45.2614 289.121 44.6761 288.496 43.9716C287.871 43.2557 287.393 42.5341 287.064 41.8068H286.74V46H279.581ZM286.689 32.9091C286.689 34.4659 286.905 35.8239 287.337 36.983C287.768 38.142 288.393 39.0455 289.212 39.6932C290.03 40.3295 291.024 40.6477 292.195 40.6477C293.376 40.6477 294.376 40.3239 295.195 39.6761C296.013 39.017 296.632 38.108 297.053 36.9489C297.484 35.7784 297.7 34.4318 297.7 32.9091C297.7 31.3977 297.49 30.0682 297.07 28.9205C296.649 27.7727 296.03 26.875 295.212 26.2273C294.393 25.5795 293.388 25.2557 292.195 25.2557C291.013 25.2557 290.013 25.5682 289.195 26.1932C288.388 26.8182 287.768 27.7045 287.337 28.8523C286.905 30 286.689 31.3523 286.689 32.9091ZM321.892 46.5114C319.199 46.5114 316.881 45.9659 314.938 44.875C313.006 43.7727 311.517 42.2159 310.472 40.2045C309.426 38.1818 308.903 35.7898 308.903 33.0284C308.903 30.3352 309.426 27.9716 310.472 25.9375C311.517 23.9034 312.989 22.3182 314.886 21.1818C316.795 20.0455 319.034 19.4773 321.602 19.4773C323.33 19.4773 324.938 19.7557 326.426 20.3125C327.926 20.858 329.233 21.6818 330.347 22.7841C331.472 23.8864 332.347 25.2727 332.972 26.9432C333.597 28.6023 333.909 30.5455 333.909 32.7727V34.767H311.801V30.267H327.074C327.074 29.2216 326.847 28.2955 326.392 27.4886C325.938 26.6818 325.307 26.0511 324.5 25.5966C323.705 25.1307 322.778 24.8977 321.722 24.8977C320.619 24.8977 319.642 25.1534 318.79 25.6648C317.949 26.1648 317.29 26.8409 316.812 27.6932C316.335 28.5341 316.091 29.4716 316.08 30.5057V34.7841C316.08 36.0795 316.318 37.1989 316.795 38.142C317.284 39.0852 317.972 39.8125 318.858 40.3239C319.744 40.8352 320.795 41.0909 322.011 41.0909C322.818 41.0909 323.557 40.9773 324.227 40.75C324.898 40.5227 325.472 40.1818 325.949 39.7273C326.426 39.2727 326.79 38.7159 327.04 38.0568L333.756 38.5C333.415 40.1136 332.716 41.5227 331.659 42.7273C330.614 43.9205 329.261 44.8523 327.602 45.5227C325.955 46.1818 324.051 46.5114 321.892 46.5114ZM338.648 46V19.8182H345.688V24.3864H345.96C346.438 22.7614 347.239 21.5341 348.364 20.7045C349.489 19.8636 350.784 19.4432 352.25 19.4432C352.614 19.4432 353.006 19.4659 353.426 19.5114C353.847 19.5568 354.216 19.6193 354.534 19.6989V26.142C354.193 26.0398 353.722 25.9489 353.119 25.8693C352.517 25.7898 351.966 25.75 351.466 25.75C350.398 25.75 349.443 25.983 348.602 26.4489C347.773 26.9034 347.114 27.5398 346.625 28.358C346.148 29.1761 345.909 30.1193 345.909 31.1875V46H338.648ZM388.472 21.1307C388.335 19.7557 387.75 18.6875 386.716 17.9261C385.682 17.1648 384.278 16.7841 382.506 16.7841C381.301 16.7841 380.284 16.9545 379.455 17.2955C378.625 17.625 377.989 18.0852 377.545 18.6761C377.114 19.267 376.898 19.9375 376.898 20.6875C376.875 21.3125 377.006 21.858 377.29 22.3239C377.585 22.7898 377.989 23.1932 378.5 23.5341C379.011 23.8636 379.602 24.1534 380.273 24.4034C380.943 24.642 381.659 24.8466 382.42 25.017L385.557 25.767C387.08 26.108 388.477 26.5625 389.75 27.1307C391.023 27.6989 392.125 28.3977 393.057 29.2273C393.989 30.0568 394.71 31.0341 395.222 32.1591C395.744 33.2841 396.011 34.5739 396.023 36.0284C396.011 38.1648 395.466 40.017 394.386 41.5852C393.318 43.142 391.773 44.3523 389.75 45.2159C387.739 46.0682 385.313 46.4943 382.472 46.4943C379.653 46.4943 377.199 46.0625 375.108 45.1989C373.028 44.3352 371.403 43.0568 370.233 41.3636C369.074 39.6591 368.466 37.5511 368.409 35.0398H375.551C375.631 36.2102 375.966 37.1875 376.557 37.9716C377.159 38.7443 377.96 39.3295 378.96 39.7273C379.972 40.1136 381.114 40.3068 382.386 40.3068C383.636 40.3068 384.722 40.125 385.642 39.7614C386.574 39.3977 387.295 38.892 387.807 38.2443C388.318 37.5966 388.574 36.8523 388.574 36.0114C388.574 35.2273 388.341 34.5682 387.875 34.0341C387.42 33.5 386.75 33.0455 385.864 32.6705C384.989 32.2955 383.915 31.9545 382.642 31.6477L378.841 30.6932C375.898 29.9773 373.574 28.858 371.869 27.3352C370.165 25.8125 369.318 23.7614 369.33 21.1818C369.318 19.0682 369.881 17.2216 371.017 15.642C372.165 14.0625 373.739 12.8295 375.739 11.9432C377.739 11.0568 380.011 10.6136 382.557 10.6136C385.148 10.6136 387.409 11.0568 389.341 11.9432C391.284 12.8295 392.795 14.0625 393.875 15.642C394.955 17.2216 395.511 19.0511 395.545 21.1307H388.472ZM412.783 46.5114C410.089 46.5114 407.771 45.9659 405.828 44.875C403.896 43.7727 402.408 42.2159 401.362 40.2045C400.317 38.1818 399.794 35.7898 399.794 33.0284C399.794 30.3352 400.317 27.9716 401.362 25.9375C402.408 23.9034 403.879 22.3182 405.777 21.1818C407.686 20.0455 409.925 19.4773 412.493 19.4773C414.22 19.4773 415.828 19.7557 417.317 20.3125C418.817 20.858 420.124 21.6818 421.237 22.7841C422.362 23.8864 423.237 25.2727 423.862 26.9432C424.487 28.6023 424.8 30.5455 424.8 32.7727V34.767H402.692V30.267H417.964C417.964 29.2216 417.737 28.2955 417.283 27.4886C416.828 26.6818 416.197 26.0511 415.391 25.5966C414.595 25.1307 413.669 24.8977 412.612 24.8977C411.51 24.8977 410.533 25.1534 409.68 25.6648C408.839 26.1648 408.18 26.8409 407.703 27.6932C407.226 28.5341 406.982 29.4716 406.97 30.5057V34.7841C406.97 36.0795 407.209 37.1989 407.686 38.142C408.175 39.0852 408.862 39.8125 409.749 40.3239C410.635 40.8352 411.686 41.0909 412.902 41.0909C413.709 41.0909 414.447 40.9773 415.118 40.75C415.788 40.5227 416.362 40.1818 416.839 39.7273C417.317 39.2727 417.68 38.7159 417.93 38.0568L424.646 38.5C424.305 40.1136 423.607 41.5227 422.55 42.7273C421.504 43.9205 420.152 44.8523 418.493 45.5227C416.845 46.1818 414.942 46.5114 412.783 46.5114ZM441.368 46.5114C438.686 46.5114 436.379 45.9432 434.447 44.8068C432.527 43.6591 431.05 42.0682 430.016 40.0341C428.993 38 428.482 35.6591 428.482 33.0114C428.482 30.3295 428.999 27.9773 430.033 25.9545C431.078 23.9205 432.561 22.3352 434.482 21.1989C436.402 20.0511 438.686 19.4773 441.334 19.4773C443.618 19.4773 445.618 19.892 447.334 20.7216C449.05 21.5511 450.408 22.7159 451.408 24.2159C452.408 25.7159 452.959 27.4773 453.061 29.5H446.209C446.016 28.1932 445.504 27.142 444.675 26.3466C443.857 25.5398 442.783 25.1364 441.453 25.1364C440.328 25.1364 439.345 25.4432 438.504 26.0568C437.675 26.6591 437.027 27.5398 436.561 28.6989C436.095 29.858 435.862 31.2614 435.862 32.9091C435.862 34.5795 436.089 36 436.544 37.1705C437.01 38.3409 437.663 39.233 438.504 39.8466C439.345 40.4602 440.328 40.767 441.453 40.767C442.283 40.767 443.027 40.5966 443.686 40.2557C444.357 39.9148 444.908 39.4205 445.339 38.7727C445.783 38.1136 446.072 37.3239 446.209 36.4034H453.061C452.947 38.4034 452.402 40.1648 451.425 41.6875C450.459 43.1989 449.124 44.3807 447.419 45.233C445.714 46.0852 443.697 46.5114 441.368 46.5114ZM474.5 34.8523V19.8182H481.761V46H474.79V41.2443H474.517C473.926 42.7784 472.943 44.0114 471.568 44.9432C470.205 45.875 468.54 46.3409 466.574 46.3409C464.824 46.3409 463.284 45.9432 461.955 45.1477C460.625 44.3523 459.585 43.2216 458.835 41.7557C458.097 40.2898 457.722 38.5341 457.71 36.4886V19.8182H464.972V35.1932C464.983 36.7386 465.398 37.9602 466.216 38.858C467.034 39.7557 468.131 40.2045 469.506 40.2045C470.381 40.2045 471.199 40.0057 471.96 39.608C472.722 39.1989 473.335 38.5966 473.801 37.8011C474.278 37.0057 474.511 36.0227 474.5 34.8523ZM487.57 46V19.8182H494.609V24.3864H494.882C495.359 22.7614 496.161 21.5341 497.286 20.7045C498.411 19.8636 499.706 19.4432 501.172 19.4432C501.536 19.4432 501.928 19.4659 502.348 19.5114C502.768 19.5568 503.138 19.6193 503.456 19.6989V26.142C503.115 26.0398 502.643 25.9489 502.041 25.8693C501.439 25.7898 500.888 25.75 500.388 25.75C499.32 25.75 498.365 25.983 497.524 26.4489C496.695 26.9034 496.036 27.5398 495.547 28.358C495.07 29.1761 494.831 30.1193 494.831 31.1875V46H487.57ZM507.21 46V19.8182H514.472V46H507.21ZM510.858 16.4432C509.778 16.4432 508.852 16.0852 508.08 15.3693C507.318 14.642 506.938 13.7727 506.938 12.7614C506.938 11.7614 507.318 10.9034 508.08 10.1875C508.852 9.46023 509.778 9.09659 510.858 9.09659C511.938 9.09659 512.858 9.46023 513.619 10.1875C514.392 10.9034 514.778 11.7614 514.778 12.7614C514.778 13.7727 514.392 14.642 513.619 15.3693C512.858 16.0852 511.938 16.4432 510.858 16.4432ZM534.214 19.8182V25.2727H518.447V19.8182H534.214ZM522.027 13.5455H529.288V37.9545C529.288 38.625 529.391 39.1477 529.595 39.5227C529.8 39.8864 530.084 40.142 530.447 40.2898C530.822 40.4375 531.254 40.5114 531.743 40.5114C532.084 40.5114 532.425 40.483 532.766 40.4261C533.107 40.358 533.368 40.3068 533.55 40.2727L534.692 45.6761C534.328 45.7898 533.817 45.9205 533.158 46.0682C532.499 46.2273 531.697 46.3239 530.754 46.358C529.004 46.4261 527.47 46.1932 526.152 45.6591C524.845 45.125 523.828 44.2955 523.101 43.1705C522.374 42.0455 522.016 40.625 522.027 38.9091V13.5455ZM543.428 55.8182C542.507 55.8182 541.643 55.7443 540.837 55.5966C540.041 55.4602 539.382 55.2841 538.859 55.0682L540.496 49.6477C541.348 49.9091 542.115 50.0511 542.797 50.0739C543.49 50.0966 544.087 49.9375 544.587 49.5966C545.098 49.2557 545.513 48.6761 545.831 47.858L546.257 46.75L536.865 19.8182H544.501L549.922 39.0455H550.195L555.666 19.8182H563.354L553.178 48.8295C552.689 50.2386 552.024 51.4659 551.183 52.5114C550.354 53.5682 549.303 54.3807 548.03 54.9489C546.757 55.5284 545.223 55.8182 543.428 55.8182Z" fill="#FFF8F0"/>
<rect x="579" y="25" width="36" height="27" rx="3" fill="#FFF8F0"/>
<path d="M597 7C599.009 7.00001 600.999 7.46042 602.855 8.35449C604.712 9.24854 606.398 10.5591 607.818 12.2109C609.239 13.863 610.367 15.824 611.136 17.9824C611.905 20.1409 612.3 22.4547 612.3 24.791H609.6C609.6 22.867 609.274 20.9612 608.641 19.1836C608.007 17.4062 607.079 15.791 605.909 14.4307C604.739 13.0704 603.351 11.9911 601.822 11.2549C600.294 10.5186 598.655 10.1397 597 10.1396C595.345 10.1396 593.706 10.5186 592.178 11.2549C590.649 11.9911 589.261 13.0704 588.091 14.4307C586.921 15.7911 585.993 17.4062 585.359 19.1836C584.726 20.9611 584.4 22.867 584.4 24.791H581.7C581.7 22.4547 582.095 20.1409 582.864 17.9824C583.633 15.824 584.761 13.863 586.182 12.2109C587.602 10.5591 589.288 9.24854 591.145 8.35449C593.001 7.46044 594.991 7 597 7Z" fill="#FFF8F0"/>
<path d="M33.8352 89.3125H26.3693C26.233 88.3466 25.9545 87.4886 25.5341 86.7386C25.1136 85.9773 24.5739 85.3295 23.9148 84.7955C23.2557 84.2614 22.4943 83.8523 21.6307 83.5682C20.7784 83.2841 19.8523 83.142 18.8523 83.142C17.0455 83.142 15.4716 83.5909 14.1307 84.4886C12.7898 85.375 11.75 86.6705 11.0114 88.375C10.2727 90.0682 9.90341 92.125 9.90341 94.5455C9.90341 97.0341 10.2727 99.125 11.0114 100.818C11.7614 102.511 12.8068 103.79 14.1477 104.653C15.4886 105.517 17.0398 105.949 18.8011 105.949C19.7898 105.949 20.7045 105.818 21.5455 105.557C22.3977 105.295 23.1534 104.915 23.8125 104.415C24.4716 103.903 25.017 103.284 25.4489 102.557C25.892 101.83 26.1989 101 26.3693 100.068L33.8352 100.102C33.642 101.705 33.1591 103.25 32.3864 104.739C31.625 106.216 30.5966 107.54 29.3011 108.71C28.017 109.869 26.483 110.79 24.6989 111.472C22.9261 112.142 20.9205 112.477 18.6818 112.477C15.5682 112.477 12.7841 111.773 10.3295 110.364C7.88636 108.955 5.95455 106.915 4.53409 104.244C3.125 101.574 2.42045 98.3409 2.42045 94.5455C2.42045 90.7386 3.13636 87.5 4.56818 84.8295C6 82.1591 7.94318 80.125 10.3977 78.7273C12.8523 77.3182 15.6136 76.6136 18.6818 76.6136C20.7045 76.6136 22.5795 76.8977 24.3068 77.4659C26.0455 78.0341 27.5852 78.8636 28.9261 79.9545C30.267 81.0341 31.358 82.358 32.1989 83.9261C33.0511 85.4943 33.5966 87.2898 33.8352 89.3125ZM46.2528 77.0909V112H38.9915V77.0909H46.2528ZM63.8991 112.511C61.2514 112.511 58.9616 111.949 57.0298 110.824C55.1094 109.687 53.6264 108.108 52.581 106.085C51.5355 104.051 51.0128 101.693 51.0128 99.0114C51.0128 96.3068 51.5355 93.9432 52.581 91.9205C53.6264 89.8864 55.1094 88.3068 57.0298 87.1818C58.9616 86.0455 61.2514 85.4773 63.8991 85.4773C66.5469 85.4773 68.831 86.0455 70.7514 87.1818C72.6832 88.3068 74.1719 89.8864 75.2173 91.9205C76.2628 93.9432 76.7855 96.3068 76.7855 99.0114C76.7855 101.693 76.2628 104.051 75.2173 106.085C74.1719 108.108 72.6832 109.687 70.7514 110.824C68.831 111.949 66.5469 112.511 63.8991 112.511ZM63.9332 106.886C65.1378 106.886 66.1435 106.545 66.9503 105.864C67.7571 105.17 68.3651 104.227 68.7741 103.034C69.1946 101.841 69.4048 100.483 69.4048 98.9602C69.4048 97.4375 69.1946 96.0795 68.7741 94.8864C68.3651 93.6932 67.7571 92.75 66.9503 92.0568C66.1435 91.3636 65.1378 91.017 63.9332 91.017C62.7173 91.017 61.6946 91.3636 60.8651 92.0568C60.0469 92.75 59.4276 93.6932 59.0071 94.8864C58.598 96.0795 58.3935 97.4375 58.3935 98.9602C58.3935 100.483 58.598 101.841 59.0071 103.034C59.4276 104.227 60.0469 105.17 60.8651 105.864C61.6946 106.545 62.7173 106.886 63.9332 106.886ZM98.2969 100.852V85.8182H105.558V112H98.5866V107.244H98.3139C97.723 108.778 96.7401 110.011 95.3651 110.943C94.0014 111.875 92.3366 112.341 90.3707 112.341C88.6207 112.341 87.081 111.943 85.7514 111.148C84.4219 110.352 83.3821 109.222 82.6321 107.756C81.8935 106.29 81.5185 104.534 81.5071 102.489V85.8182H88.7685V101.193C88.7798 102.739 89.1946 103.96 90.0128 104.858C90.831 105.756 91.9276 106.205 93.3026 106.205C94.1776 106.205 94.9957 106.006 95.7571 105.608C96.5185 105.199 97.1321 104.597 97.598 103.801C98.0753 103.006 98.3082 102.023 98.2969 100.852ZM121.014 112.426C119.026 112.426 117.224 111.915 115.611 110.892C114.009 109.858 112.736 108.341 111.793 106.341C110.861 104.33 110.395 101.864 110.395 98.9432C110.395 95.9432 110.878 93.4489 111.844 91.4602C112.81 89.4602 114.094 87.9659 115.696 86.9773C117.31 85.9773 119.077 85.4773 120.997 85.4773C122.463 85.4773 123.685 85.7273 124.662 86.2273C125.651 86.7159 126.446 87.3295 127.048 88.0682C127.662 88.7955 128.128 89.5114 128.446 90.2159H128.668V77.0909H135.912V112H128.753V107.807H128.446C128.105 108.534 127.622 109.256 126.997 109.972C126.384 110.676 125.582 111.261 124.594 111.727C123.616 112.193 122.423 112.426 121.014 112.426ZM123.315 106.648C124.486 106.648 125.474 106.33 126.281 105.693C127.099 105.045 127.724 104.142 128.156 102.983C128.599 101.824 128.821 100.466 128.821 98.9091C128.821 97.3523 128.605 96 128.173 94.8523C127.741 93.7045 127.116 92.8182 126.298 92.1932C125.48 91.5682 124.486 91.2557 123.315 91.2557C122.122 91.2557 121.116 91.5795 120.298 92.2273C119.48 92.875 118.861 93.7727 118.44 94.9205C118.02 96.0682 117.81 97.3977 117.81 98.9091C117.81 100.432 118.02 101.778 118.44 102.949C118.872 104.108 119.491 105.017 120.298 105.676C121.116 106.324 122.122 106.648 123.315 106.648ZM183.929 89.3125H176.463C176.327 88.3466 176.048 87.4886 175.628 86.7386C175.207 85.9773 174.668 85.3295 174.009 84.7955C173.349 84.2614 172.588 83.8523 171.724 83.5682C170.872 83.2841 169.946 83.142 168.946 83.142C167.139 83.142 165.565 83.5909 164.224 84.4886C162.884 85.375 161.844 86.6705 161.105 88.375C160.366 90.0682 159.997 92.125 159.997 94.5455C159.997 97.0341 160.366 99.125 161.105 100.818C161.855 102.511 162.901 103.79 164.241 104.653C165.582 105.517 167.134 105.949 168.895 105.949C169.884 105.949 170.798 105.818 171.639 105.557C172.491 105.295 173.247 104.915 173.906 104.415C174.565 103.903 175.111 103.284 175.543 102.557C175.986 101.83 176.293 101 176.463 100.068L183.929 100.102C183.736 101.705 183.253 103.25 182.48 104.739C181.719 106.216 180.69 107.54 179.395 108.71C178.111 109.869 176.577 110.79 174.793 111.472C173.02 112.142 171.014 112.477 168.776 112.477C165.662 112.477 162.878 111.773 160.423 110.364C157.98 108.955 156.048 106.915 154.628 104.244C153.219 101.574 152.514 98.3409 152.514 94.5455C152.514 90.7386 153.23 87.5 154.662 84.8295C156.094 82.1591 158.037 80.125 160.491 78.7273C162.946 77.3182 165.707 76.6136 168.776 76.6136C170.798 76.6136 172.673 76.8977 174.401 77.4659C176.139 78.0341 177.679 78.8636 179.02 79.9545C180.361 81.0341 181.452 82.358 182.293 83.9261C183.145 85.4943 183.69 87.2898 183.929 89.3125ZM200.915 112.511C198.267 112.511 195.977 111.949 194.045 110.824C192.125 109.687 190.642 108.108 189.597 106.085C188.551 104.051 188.028 101.693 188.028 99.0114C188.028 96.3068 188.551 93.9432 189.597 91.9205C190.642 89.8864 192.125 88.3068 194.045 87.1818C195.977 86.0455 198.267 85.4773 200.915 85.4773C203.562 85.4773 205.847 86.0455 207.767 87.1818C209.699 88.3068 211.188 89.8864 212.233 91.9205C213.278 93.9432 213.801 96.3068 213.801 99.0114C213.801 101.693 213.278 104.051 212.233 106.085C211.188 108.108 209.699 109.687 207.767 110.824C205.847 111.949 203.562 112.511 200.915 112.511ZM200.949 106.886C202.153 106.886 203.159 106.545 203.966 105.864C204.773 105.17 205.381 104.227 205.79 103.034C206.21 101.841 206.42 100.483 206.42 98.9602C206.42 97.4375 206.21 96.0795 205.79 94.8864C205.381 93.6932 204.773 92.75 203.966 92.0568C203.159 91.3636 202.153 91.017 200.949 91.017C199.733 91.017 198.71 91.3636 197.881 92.0568C197.063 92.75 196.443 93.6932 196.023 94.8864C195.614 96.0795 195.409 97.4375 195.409 98.9602C195.409 100.483 195.614 101.841 196.023 103.034C196.443 104.227 197.063 105.17 197.881 105.864C198.71 106.545 199.733 106.886 200.949 106.886ZM218.523 112V85.8182H225.443V90.4375H225.75C226.295 88.9034 227.205 87.6932 228.477 86.8068C229.75 85.9205 231.273 85.4773 233.045 85.4773C234.841 85.4773 236.369 85.9261 237.631 86.8239C238.892 87.7102 239.733 88.9148 240.153 90.4375H240.426C240.96 88.9375 241.926 87.7386 243.324 86.8409C244.733 85.9318 246.398 85.4773 248.318 85.4773C250.761 85.4773 252.744 86.2557 254.267 87.8125C255.801 89.358 256.568 91.5511 256.568 94.392V112H249.324V95.8239C249.324 94.3693 248.938 93.2784 248.165 92.5511C247.392 91.8239 246.426 91.4602 245.267 91.4602C243.949 91.4602 242.92 91.8807 242.182 92.7216C241.443 93.5511 241.074 94.6477 241.074 96.0114V112H234.034V95.6705C234.034 94.3864 233.665 93.3636 232.926 92.6023C232.199 91.8409 231.239 91.4602 230.045 91.4602C229.239 91.4602 228.511 91.6648 227.864 92.0739C227.227 92.4716 226.722 93.0341 226.347 93.7614C225.972 94.4773 225.784 95.3182 225.784 96.2841V112H218.523ZM262.304 121.818V85.8182H269.463V90.2159H269.787C270.105 89.5114 270.565 88.7955 271.168 88.0682C271.781 87.3295 272.577 86.7159 273.554 86.2273C274.543 85.7273 275.77 85.4773 277.236 85.4773C279.145 85.4773 280.906 85.9773 282.52 86.9773C284.134 87.9659 285.423 89.4602 286.389 91.4602C287.355 93.4489 287.838 95.9432 287.838 98.9432C287.838 101.864 287.366 104.33 286.423 106.341C285.491 108.341 284.219 109.858 282.605 110.892C281.003 111.915 279.207 112.426 277.219 112.426C275.81 112.426 274.611 112.193 273.622 111.727C272.645 111.261 271.844 110.676 271.219 109.972C270.594 109.256 270.116 108.534 269.787 107.807H269.565V121.818H262.304ZM269.412 98.9091C269.412 100.466 269.628 101.824 270.06 102.983C270.491 104.142 271.116 105.045 271.935 105.693C272.753 106.33 273.747 106.648 274.918 106.648C276.099 106.648 277.099 106.324 277.918 105.676C278.736 105.017 279.355 104.108 279.776 102.949C280.207 101.778 280.423 100.432 280.423 98.9091C280.423 97.3977 280.213 96.0682 279.793 94.9205C279.372 93.7727 278.753 92.875 277.935 92.2273C277.116 91.5795 276.111 91.2557 274.918 91.2557C273.736 91.2557 272.736 91.5682 271.918 92.1932C271.111 92.8182 270.491 93.7045 270.06 94.8523C269.628 96 269.412 97.3523 269.412 98.9091ZM309.469 100.852V85.8182H316.73V112H309.759V107.244H309.486C308.895 108.778 307.912 110.011 306.537 110.943C305.173 111.875 303.509 112.341 301.543 112.341C299.793 112.341 298.253 111.943 296.923 111.148C295.594 110.352 294.554 109.222 293.804 107.756C293.065 106.29 292.69 104.534 292.679 102.489V85.8182H299.94V101.193C299.952 102.739 300.366 103.96 301.185 104.858C302.003 105.756 303.099 106.205 304.474 106.205C305.349 106.205 306.168 106.006 306.929 105.608C307.69 105.199 308.304 104.597 308.77 103.801C309.247 103.006 309.48 102.023 309.469 100.852ZM336.464 85.8182V91.2727H320.697V85.8182H336.464ZM324.277 79.5455H331.538V103.955C331.538 104.625 331.641 105.148 331.845 105.523C332.05 105.886 332.334 106.142 332.697 106.29C333.072 106.437 333.504 106.511 333.993 106.511C334.334 106.511 334.675 106.483 335.016 106.426C335.357 106.358 335.618 106.307 335.8 106.273L336.942 111.676C336.578 111.79 336.067 111.92 335.408 112.068C334.749 112.227 333.947 112.324 333.004 112.358C331.254 112.426 329.72 112.193 328.402 111.659C327.095 111.125 326.078 110.295 325.351 109.17C324.624 108.045 324.266 106.625 324.277 104.909V79.5455ZM341.195 112V85.8182H348.456V112H341.195ZM344.842 82.4432C343.763 82.4432 342.837 82.0852 342.064 81.3693C341.303 80.642 340.922 79.7727 340.922 78.7614C340.922 77.7614 341.303 76.9034 342.064 76.1875C342.837 75.4602 343.763 75.0966 344.842 75.0966C345.922 75.0966 346.842 75.4602 347.604 76.1875C348.376 76.9034 348.763 77.7614 348.763 78.7614C348.763 79.7727 348.376 80.642 347.604 81.3693C346.842 82.0852 345.922 82.4432 344.842 82.4432ZM361.534 96.8636V112H354.273V85.8182H361.193V90.4375H361.5C362.08 88.9148 363.051 87.7102 364.415 86.8239C365.778 85.9261 367.432 85.4773 369.375 85.4773C371.193 85.4773 372.778 85.875 374.131 86.6705C375.483 87.4659 376.534 88.6023 377.284 90.0795C378.034 91.5455 378.409 93.2955 378.409 95.3295V112H371.148V96.625C371.159 95.0227 370.75 93.7727 369.92 92.875C369.091 91.9659 367.949 91.5114 366.494 91.5114C365.517 91.5114 364.653 91.7216 363.903 92.142C363.165 92.5625 362.585 93.1761 362.165 93.983C361.756 94.7784 361.545 95.7386 361.534 96.8636ZM395.928 122.364C393.575 122.364 391.558 122.04 389.876 121.392C388.206 120.756 386.876 119.886 385.888 118.784C384.899 117.682 384.257 116.443 383.962 115.068L390.678 114.165C390.882 114.688 391.206 115.176 391.649 115.631C392.092 116.085 392.678 116.449 393.405 116.722C394.143 117.006 395.041 117.148 396.098 117.148C397.678 117.148 398.979 116.761 400.001 115.989C401.036 115.227 401.553 113.949 401.553 112.153V107.364H401.246C400.928 108.091 400.45 108.778 399.814 109.426C399.178 110.074 398.359 110.602 397.359 111.011C396.359 111.42 395.166 111.625 393.78 111.625C391.814 111.625 390.024 111.17 388.411 110.261C386.808 109.341 385.53 107.937 384.575 106.051C383.632 104.153 383.161 101.756 383.161 98.858C383.161 95.892 383.643 93.4148 384.609 91.4261C385.575 89.4375 386.859 87.9489 388.462 86.9602C390.075 85.9716 391.842 85.4773 393.763 85.4773C395.229 85.4773 396.456 85.7273 397.445 86.2273C398.433 86.7159 399.229 87.3295 399.831 88.0682C400.445 88.7955 400.916 89.5114 401.246 90.2159H401.518V85.8182H408.729V112.256C408.729 114.483 408.183 116.347 407.092 117.847C406.001 119.347 404.49 120.472 402.558 121.222C400.638 121.983 398.428 122.364 395.928 122.364ZM396.081 106.17C397.251 106.17 398.24 105.881 399.047 105.301C399.865 104.71 400.49 103.869 400.922 102.778C401.365 101.676 401.587 100.358 401.587 98.8239C401.587 97.2898 401.371 95.9602 400.939 94.8352C400.507 93.6989 399.882 92.8182 399.064 92.1932C398.246 91.5682 397.251 91.2557 396.081 91.2557C394.888 91.2557 393.882 91.5795 393.064 92.2273C392.246 92.8636 391.626 93.75 391.206 94.8864C390.786 96.0227 390.575 97.3352 390.575 98.8239C390.575 100.335 390.786 101.642 391.206 102.744C391.638 103.835 392.257 104.682 393.064 105.284C393.882 105.875 394.888 106.17 396.081 106.17Z" fill="#FFF8F0"/>
<path d="M430.577 107.252C431.184 107.525 431.828 107.729 432.501 107.854L431.722 110.75H429.637L430.577 107.252ZM425.67 100.85C425.78 101.541 425.974 102.206 426.24 102.831L422.597 104.294V104.398L428 106.568V108.869L420 105.347V103.347L425.67 100.85ZM437.109 108.869V108H439.083L437.109 108.869ZM452.062 79C457.861 79 462.562 83.701 462.562 89.5C462.562 90.2388 462.485 90.9596 462.34 91.6553C465.407 92.9382 467.562 95.9672 467.562 99.5C467.562 104.194 463.757 108 459.062 108H439.083L445.109 105.347V103.347L437.109 99.8242V102.125L442.513 104.294V104.398L437.109 106.568V108H434.062C433.529 108 433.007 107.948 432.501 107.854L435.472 96.8184H433.387L430.577 107.252C428.634 106.377 427.078 104.795 426.24 102.831L428 102.125V99.8242L425.67 100.85C425.6 100.41 425.562 99.9593 425.562 99.5C425.562 95.6287 428.151 92.3635 431.691 91.3369C431.608 90.9041 431.562 90.4573 431.562 90C431.562 86.134 434.697 83 438.562 83C440.177 83 441.663 83.5478 442.847 84.4658C444.63 81.2089 448.088 79 452.062 79Z" fill="#FFF8F0"/>
<path d="M509.835 89.3125H502.369C502.233 88.3466 501.955 87.4886 501.534 86.7386C501.114 85.9773 500.574 85.3295 499.915 84.7955C499.256 84.2614 498.494 83.8523 497.631 83.5682C496.778 83.2841 495.852 83.142 494.852 83.142C493.045 83.142 491.472 83.5909 490.131 84.4886C488.79 85.375 487.75 86.6705 487.011 88.375C486.273 90.0682 485.903 92.125 485.903 94.5455C485.903 97.0341 486.273 99.125 487.011 100.818C487.761 102.511 488.807 103.79 490.148 104.653C491.489 105.517 493.04 105.949 494.801 105.949C495.79 105.949 496.705 105.818 497.545 105.557C498.398 105.295 499.153 104.915 499.812 104.415C500.472 103.903 501.017 103.284 501.449 102.557C501.892 101.83 502.199 101 502.369 100.068L509.835 100.102C509.642 101.705 509.159 103.25 508.386 104.739C507.625 106.216 506.597 107.54 505.301 108.71C504.017 109.869 502.483 110.79 500.699 111.472C498.926 112.142 496.92 112.477 494.682 112.477C491.568 112.477 488.784 111.773 486.33 110.364C483.886 108.955 481.955 106.915 480.534 104.244C479.125 101.574 478.42 98.3409 478.42 94.5455C478.42 90.7386 479.136 87.5 480.568 84.8295C482 82.1591 483.943 80.125 486.398 78.7273C488.852 77.3182 491.614 76.6136 494.682 76.6136C496.705 76.6136 498.58 76.8977 500.307 77.4659C502.045 78.0341 503.585 78.8636 504.926 79.9545C506.267 81.0341 507.358 82.358 508.199 83.9261C509.051 85.4943 509.597 87.2898 509.835 89.3125ZM522.457 112.494C520.787 112.494 519.298 112.205 517.991 111.625C516.685 111.034 515.651 110.165 514.889 109.017C514.139 107.858 513.764 106.415 513.764 104.688C513.764 103.233 514.031 102.011 514.565 101.023C515.099 100.034 515.827 99.2386 516.747 98.6364C517.668 98.0341 518.713 97.5795 519.884 97.2727C521.065 96.9659 522.304 96.75 523.599 96.625C525.122 96.4659 526.349 96.3182 527.281 96.1818C528.213 96.0341 528.889 95.8182 529.31 95.5341C529.73 95.25 529.94 94.8295 529.94 94.2727V94.1705C529.94 93.0909 529.599 92.2557 528.918 91.6648C528.247 91.0739 527.293 90.7784 526.054 90.7784C524.747 90.7784 523.707 91.0682 522.935 91.6477C522.162 92.2159 521.651 92.9318 521.401 93.7955L514.685 93.25C515.026 91.6591 515.696 90.2841 516.696 89.125C517.696 87.9545 518.986 87.0568 520.565 86.4318C522.156 85.7955 523.997 85.4773 526.088 85.4773C527.543 85.4773 528.935 85.6477 530.264 85.9886C531.605 86.3295 532.793 86.858 533.827 87.5739C534.872 88.2898 535.696 89.2102 536.298 90.3352C536.901 91.4489 537.202 92.7841 537.202 94.3409V112H530.315V108.369H530.111C529.69 109.188 529.128 109.909 528.423 110.534C527.719 111.148 526.872 111.631 525.884 111.983C524.895 112.324 523.753 112.494 522.457 112.494ZM524.537 107.483C525.605 107.483 526.548 107.273 527.366 106.852C528.185 106.42 528.827 105.841 529.293 105.114C529.759 104.386 529.991 103.562 529.991 102.642V99.8636C529.764 100.011 529.452 100.148 529.054 100.273C528.668 100.386 528.23 100.494 527.741 100.597C527.253 100.687 526.764 100.773 526.276 100.852C525.787 100.92 525.344 100.983 524.946 101.04C524.094 101.165 523.349 101.364 522.713 101.636C522.077 101.909 521.582 102.278 521.23 102.744C520.878 103.199 520.702 103.767 520.702 104.449C520.702 105.438 521.06 106.193 521.776 106.716C522.503 107.227 523.423 107.483 524.537 107.483ZM542.972 112V77.0909H550.233V90.2159H550.455C550.773 89.5114 551.233 88.7955 551.835 88.0682C552.449 87.3295 553.244 86.7159 554.222 86.2273C555.21 85.7273 556.438 85.4773 557.903 85.4773C559.813 85.4773 561.574 85.9773 563.188 86.9773C564.801 87.9659 566.091 89.4602 567.057 91.4602C568.023 93.4489 568.506 95.9432 568.506 98.9432C568.506 101.864 568.034 104.33 567.091 106.341C566.159 108.341 564.886 109.858 563.273 110.892C561.67 111.915 559.875 112.426 557.886 112.426C556.477 112.426 555.278 112.193 554.29 111.727C553.312 111.261 552.511 110.676 551.886 109.972C551.261 109.256 550.784 108.534 550.455 107.807H550.131V112H542.972ZM550.08 98.9091C550.08 100.466 550.295 101.824 550.727 102.983C551.159 104.142 551.784 105.045 552.602 105.693C553.42 106.33 554.415 106.648 555.585 106.648C556.767 106.648 557.767 106.324 558.585 105.676C559.403 105.017 560.023 104.108 560.443 102.949C560.875 101.778 561.091 100.432 561.091 98.9091C561.091 97.3977 560.881 96.0682 560.46 94.9205C560.04 93.7727 559.42 92.875 558.602 92.2273C557.784 91.5795 556.778 91.2557 555.585 91.2557C554.403 91.2557 553.403 91.5682 552.585 92.1932C551.778 92.8182 551.159 93.7045 550.727 94.8523C550.295 96 550.08 97.3523 550.08 98.9091ZM580.612 77.0909V112H573.351V77.0909H580.612ZM586.429 112V85.8182H593.69V112H586.429ZM590.077 82.4432C588.997 82.4432 588.071 82.0852 587.298 81.3693C586.537 80.642 586.156 79.7727 586.156 78.7614C586.156 77.7614 586.537 76.9034 587.298 76.1875C588.071 75.4602 588.997 75.0966 590.077 75.0966C591.156 75.0966 592.077 75.4602 592.838 76.1875C593.611 76.9034 593.997 77.7614 593.997 78.7614C593.997 79.7727 593.611 80.642 592.838 81.3693C592.077 82.0852 591.156 82.4432 590.077 82.4432ZM606.768 96.8636V112H599.507V85.8182H606.428V90.4375H606.734C607.314 88.9148 608.286 87.7102 609.649 86.8239C611.013 85.9261 612.666 85.4773 614.609 85.4773C616.428 85.4773 618.013 85.875 619.365 86.6705C620.717 87.4659 621.768 88.6023 622.518 90.0795C623.268 91.5455 623.643 93.2955 623.643 95.3295V112H616.382V96.625C616.393 95.0227 615.984 93.7727 615.155 92.875C614.325 91.9659 613.183 91.5114 611.729 91.5114C610.751 91.5114 609.888 91.7216 609.138 92.142C608.399 92.5625 607.82 93.1761 607.399 93.983C606.99 94.7784 606.78 95.7386 606.768 96.8636ZM641.162 122.364C638.81 122.364 636.793 122.04 635.111 121.392C633.44 120.756 632.111 119.886 631.122 118.784C630.134 117.682 629.491 116.443 629.196 115.068L635.912 114.165C636.116 114.688 636.44 115.176 636.884 115.631C637.327 116.085 637.912 116.449 638.639 116.722C639.378 117.006 640.276 117.148 641.332 117.148C642.912 117.148 644.213 116.761 645.236 115.989C646.27 115.227 646.787 113.949 646.787 112.153V107.364H646.48C646.162 108.091 645.685 108.778 645.048 109.426C644.412 110.074 643.594 110.602 642.594 111.011C641.594 111.42 640.401 111.625 639.014 111.625C637.048 111.625 635.259 111.17 633.645 110.261C632.043 109.341 630.764 107.937 629.81 106.051C628.866 104.153 628.395 101.756 628.395 98.858C628.395 95.892 628.878 93.4148 629.844 91.4261C630.81 89.4375 632.094 87.9489 633.696 86.9602C635.31 85.9716 637.077 85.4773 638.997 85.4773C640.463 85.4773 641.69 85.7273 642.679 86.2273C643.668 86.7159 644.463 87.3295 645.065 88.0682C645.679 88.7955 646.151 89.5114 646.48 90.2159H646.753V85.8182H653.963V112.256C653.963 114.483 653.418 116.347 652.327 117.847C651.236 119.347 649.724 120.472 647.793 121.222C645.872 121.983 643.662 122.364 641.162 122.364ZM641.315 106.17C642.486 106.17 643.474 105.881 644.281 105.301C645.099 104.71 645.724 103.869 646.156 102.778C646.599 101.676 646.821 100.358 646.821 98.8239C646.821 97.2898 646.605 95.9602 646.173 94.8352C645.741 93.6989 645.116 92.8182 644.298 92.1932C643.48 91.5682 642.486 91.2557 641.315 91.2557C640.122 91.2557 639.116 91.5795 638.298 92.2273C637.48 92.8636 636.861 93.75 636.44 94.8864C636.02 96.0227 635.81 97.3352 635.81 98.8239C635.81 100.335 636.02 101.642 636.44 102.744C636.872 103.835 637.491 104.682 638.298 105.284C639.116 105.875 640.122 106.17 641.315 106.17Z" fill="#FFF8F0"/>
<path d="M704 71C707.866 71 711 74.134 711 78V91C711 94.866 707.866 98 704 98C700.134 98 697 94.866 697 91V111C697 115.418 693.418 119 689 119C684.582 119 681 115.418 681 111V112C681 115.866 677.866 119 674 119C670.134 119 667 115.866 667 112V100C667 96.134 670.134 93 674 93C677.866 93 681 96.134 681 100V79C681 74.5817 684.582 71 689 71C693.418 71 697 74.5817 697 79V78C697 74.134 700.134 71 704 71Z" fill="#FFF8F0"/>
</svg>
