<svg width="182" height="176" viewBox="0 0 182 176" fill="none" xmlns="http://www.w3.org/2000/svg">
<rect width="71" height="71" rx="35.5" fill="#FFCF99"/>
<path d="M54 21.5C56.2091 21.5 58 23.2909 58 25.5V29.5C58 31.7091 56.2091 33.5 54 33.5H16C13.7909 33.5 12 31.7091 12 29.5V25.5C12 23.2909 13.7909 21.5 16 21.5H54ZM44.5 25.5C43.1193 25.5 42 26.6193 42 28C42 29.3807 43.1193 30.5 44.5 30.5C45.8807 30.5 47 29.3807 47 28C47 26.6193 45.8807 25.5 44.5 25.5ZM51.5 25.5C50.1193 25.5 49 26.6193 49 28C49 29.3807 50.1193 30.5 51.5 30.5C52.8807 30.5 54 29.3807 54 28C54 26.6193 52.8807 25.5 51.5 25.5Z" fill="#C61212"/>
<path d="M54 34.5C56.2091 34.5 58 36.2909 58 38.5V42.5C58 44.7091 56.2091 46.5 54 46.5H16C13.7909 46.5 12 44.7091 12 42.5V38.5C12 36.2909 13.7909 34.5 16 34.5H54ZM44.5 38.5C43.1193 38.5 42 39.6193 42 41C42 42.3807 43.1193 43.5 44.5 43.5C45.8807 43.5 47 42.3807 47 41C47 39.6193 45.8807 38.5 44.5 38.5ZM51.5 38.5C50.1193 38.5 49 39.6193 49 41C49 42.3807 50.1193 43.5 51.5 43.5C52.8807 43.5 54 42.3807 54 41C54 39.6193 52.8807 38.5 51.5 38.5Z" fill="#C61212"/>
<rect x="111" width="71" height="71" rx="35.5" fill="#FFCF99"/>
<g clip-path="url(#clip0_21_398)">
<path d="M161 11.5C164.866 11.5 168 14.634 168 18.5V31.5C168 35.366 164.866 38.5 161 38.5C157.134 38.5 154 35.366 154 31.5V51.5C154 55.9183 150.418 59.5 146 59.5C141.582 59.5 138 55.9183 138 51.5V52.5C138 56.366 134.866 59.5 131 59.5C127.134 59.5 124 56.366 124 52.5V40.5C124 36.634 127.134 33.5 131 33.5C134.866 33.5 138 36.634 138 40.5V19.5C138 15.0817 141.582 11.5 146 11.5C150.418 11.5 154 15.0817 154 19.5V18.5C154 14.634 157.134 11.5 161 11.5Z" fill="#111D4A"/>
</g>
<rect y="105" width="71" height="71" rx="35.5" fill="#FFCF99"/>
<rect x="17" y="136.5" width="36" height="27" rx="3" fill="#111D4A"/>
<path d="M35 118.5C37.0092 118.5 38.9992 118.96 40.8555 119.854C42.7115 120.749 44.3978 122.059 45.8184 123.711C47.2391 125.363 48.3669 127.324 49.1357 129.482C49.9046 131.641 50.2998 133.955 50.2998 136.291H47.5996C47.5996 134.367 47.2738 132.461 46.6406 130.684C46.0074 128.906 45.0791 127.291 43.9092 125.931C42.7393 124.57 41.3507 123.491 39.8223 122.755C38.2936 122.019 36.6547 121.64 35 121.64C33.3454 121.64 31.7064 122.019 30.1777 122.755C28.6493 123.491 27.2607 124.57 26.0908 125.931C24.9209 127.291 23.9926 128.906 23.3594 130.684C22.7262 132.461 22.4004 134.367 22.4004 136.291H19.7002C19.7002 133.955 20.0954 131.641 20.8643 129.482C21.6332 127.324 22.7609 125.363 24.1816 123.711C25.6022 122.059 27.2885 120.749 29.1445 119.854C31.0008 118.96 32.9908 118.5 35 118.5Z" fill="#C61212"/>
<rect x="111" y="105" width="71" height="71" rx="35.5" fill="#FFCF99"/>
<path d="M132.577 152.752C133.184 153.025 133.828 153.229 134.501 153.354L133.722 156.25H131.637L132.577 152.752ZM127.67 146.35C127.78 147.041 127.974 147.706 128.24 148.331L124.597 149.794V149.898L130 152.068V154.369L122 150.847V148.847L127.67 146.35ZM139.109 154.369V153.5H141.083L139.109 154.369ZM154.062 124.5C159.861 124.5 164.562 129.201 164.562 135C164.562 135.739 164.485 136.46 164.34 137.155C167.407 138.438 169.562 141.467 169.562 145C169.562 149.694 165.757 153.5 161.062 153.5H141.083L147.109 150.847V148.847L139.109 145.324V147.625L144.513 149.794V149.898L139.109 152.068V153.5H136.062C135.529 153.5 135.007 153.448 134.501 153.354L137.472 142.318H135.387L132.577 152.752C130.634 151.877 129.078 150.295 128.24 148.331L130 147.625V145.324L127.67 146.35C127.6 145.91 127.562 145.459 127.562 145C127.562 141.129 130.151 137.863 133.691 136.837C133.608 136.404 133.562 135.957 133.562 135.5C133.562 131.634 136.697 128.5 140.562 128.5C142.177 128.5 143.663 129.048 144.847 129.966C146.63 126.709 150.088 124.5 154.062 124.5Z" fill="#C61212"/>
<defs>
<clipPath id="clip0_21_398">
<rect width="48" height="48" fill="white" transform="translate(122 11.5)"/>
</clipPath>
</defs>
</svg>
